<?xml version="1.0" standalone="no"?>
<!DOCTYPE svg PUBLIC "-//W3C//DTD SVG 20010904//EN"
 "http://www.w3.org/TR/2001/REC-SVG-20010904/DTD/svg10.dtd">
<svg version="1.0" xmlns="http://www.w3.org/2000/svg"
 width="512" height="512" viewBox="0 0 512 512"
 preserveAspectRatio="xMidYMid meet">

<g transform="translate(0.000000,512.000000) scale(0.100000,-0.100000)"
fill="#000000" stroke="none">
<path d="M2315 5109 c-799 -83 -1501 -519 -1926 -1194 -293 -467 -429 -1036
-378 -1585 44 -480 215 -922 508 -1315 81 -109 399 -435 424 -435 19 0 187
192 187 213 0 8 -45 54 -100 102 -377 331 -622 779 -712 1305 -29 168 -32 517
-5 690 85 548 354 1039 760 1386 334 285 724 464 1157 531 160 24 501 24 660
0 910 -140 1636 -790 1864 -1667 166 -640 53 -1304 -315 -1852 -86 -128 -190
-248 -327 -379 -67 -65 -122 -120 -122 -124 0 -11 94 -126 139 -169 l40 -39
48 38 c93 74 300 292 389 410 240 320 398 676 469 1059 132 719 -37 1438 -477
2024 -94 125 -306 343 -433 445 -360 290 -783 474 -1250 543 -123 18 -478 26
-600 13z"/>
<path d="M2413 4389 c-437 -33 -894 -248 -1187 -559 -304 -323 -468 -688 -507
-1132 -43 -478 129 -988 458 -1363 86 -98 213 -215 233 -215 13 0 53 43 135
144 l47 57 -104 102 c-253 249 -403 530 -465 872 -23 126 -23 387 1 520 23
129 76 295 132 412 145 305 425 586 728 733 432 209 943 209 1372 0 808 -393
1120 -1377 686 -2164 -74 -135 -151 -235 -280 -364 -133 -132 -128 -123 -82
-172 8 -9 40 -46 70 -83 30 -37 62 -67 71 -67 20 0 152 120 244 223 318 354
487 867 447 1355 -77 923 -784 1631 -1702 1702 -138 11 -151 11 -297 -1z"/>
<path d="M2490 3690 c-512 -41 -941 -420 -1045 -925 -20 -100 -21 -301 -1
-415 27 -149 90 -303 179 -435 74 -109 226 -255 266 -255 5 0 25 22 44 48 19
27 56 72 82 101 l47 54 -77 76 c-159 157 -241 321 -264 533 -44 393 199 772
575 897 314 105 644 29 876 -201 340 -335 340 -872 1 -1214 -46 -46 -83 -88
-83 -93 0 -5 32 -47 70 -92 39 -46 70 -86 70 -90 0 -15 33 -18 59 -4 16 8 66
54 112 104 429 458 420 1142 -20 1581 -187 187 -443 309 -681 326 -41 3 -86 6
-100 8 -14 1 -63 -1 -110 -4z"/>
<path d="M2511 1948 c-33 -18 -207 -214 -812 -918 -753 -876 -769 -896 -769
-936 0 -35 5 -47 31 -68 l31 -26 1563 0 1563 0 30 25 c37 31 49 75 29 113 -23
47 -1544 1807 -1572 1820 -36 16 -44 15 -94 -10z"/>
</g>
</svg>
